<?xml version="1.0" standalone="no"?>
<!DOCTYPE svg PUBLIC "-//W3C//DTD SVG 1.1//EN" "http://www.w3.org/Graphics/SVG/1.1/DTD/svg11.dtd" >
<!--
2013-9-30: Created.
-->
<svg>
<metadata>
Created by iconfont
</metadata>
<defs>

<font id="iconfont" horiz-adv-x="1024" >
  <font-face
    font-family="iconfont"
    font-weight="500"
    font-stretch="normal"
    units-per-em="1024"
    ascent="896"
    descent="-128"
  />
    <missing-glyph />
    
    <glyph glyph-name="msnui-menu-right" unicode="&#58968;" d="M275.196 677.649q-13.382 13.382-20.074 30.588t-6.692 34.89 6.692 34.412 20.074 30.11q26.765 27.721 64.045 27.721t64.045-27.721l354.633-357.5q13.382-11.471 19.118-28.676t4.78-36.324-8.603-37.757-21.029-32.022l-348.898-351.765q-26.765-27.721-64.045-27.721t-64.045 27.721q-13.382 13.382-20.074 30.11t-6.692 34.412 6.692 34.89 20.074 30.588l288.676 291.545z"  horiz-adv-x="1024" />

    
    <glyph glyph-name="msnui-menu-left" unicode="&#58970;" d="M748.804 102.351q13.382-13.382 20.073-30.588t6.692-34.89-6.692-34.412-20.073-30.11q-26.765-27.721-64.045-27.721t-64.045 27.721l-354.633 357.5q-13.382 11.471-19.117 28.676t-4.78 36.324 8.603 37.757 21.029 32.022l348.899 351.765q26.765 27.721 64.045 27.721t64.045-27.721q13.382-13.382 20.073-30.11t6.692-34.412-6.692-34.89-20.073-30.588l-288.676-291.545z"  horiz-adv-x="1024" />

    
    <glyph glyph-name="jia1" unicode="&#58880;" d="M580.722174 458.009597 580.722174 817.828616 436.794158 817.828616 436.794158 458.009597 76.975139 458.009597 76.975139 314.081581 436.794158 314.081581 436.794158-45.737438 580.722174-45.737438 580.722174 314.081581 940.542216 314.081581 940.542216 458.009597Z"  horiz-adv-x="1024" />

    
    <glyph glyph-name="jian1" unicode="&#58881;" d="M587.229378 458.009597 580.722174 458.009597 76.975139 458.009597 76.975139 314.081581 580.722174 314.081581 587.229378 314.081581 940.542216 314.081581 940.542216 458.009597Z"  horiz-adv-x="1024" />

    
    <glyph glyph-name="daohangshouye2" unicode="&#58904;" d="M827.975465-142.161399c26.665313 0 48.362474 21.669532 48.362474 48.303122L876.337939 432.87938l77.324086-54.964846c10.149151-7.222495 25.448602-4.626367 32.648584 5.492084 7.501858 10.497075 5.034666 25.139563-5.489014 32.626072L525.57518 739.645089c-7.619538 5.424546-19.546172 5.424546-27.151383 0L43.170219 416.033713c-10.522658-7.486508-12.980639-22.128997-5.489014-32.643468 7.222495-10.100032 22.457478-12.730952 32.663934-5.474688l77.324086 54.981219 0-526.756075c0-26.63359 21.698185-48.303122 48.372707-48.303122l83.374896 0 1.529843 0 35.443233 0 13.221116 0c26.671453 0 48.370661 21.662369 48.370661 48.269353l-0.13917 0L377.842511 128.571652c0 26.609031 21.698185 48.269353 48.371684 48.269353l171.564447 0c26.678616 0 48.376801-21.662369 48.376801-48.269353l0-222.454488 0.149403-0.132006-0.237407 0.12382c0-26.609031 21.700231-48.269353 48.371684-48.269353"  horiz-adv-x="1024" />

    
    <glyph glyph-name="dianhua1" unicode="&#58906;" d="M729.792 281.6c-61.856-68.256-61.856-136.544-123.744-136.544s-123.744 68.256-185.6 136.544c-61.856 68.256-123.744 136.544-123.744 204.8 0 68.256 61.856 68.256 123.744 136.544C482.304 691.2 296.704 896 234.848 896s-185.6-204.8-185.6-204.8c0-136.544 127.104-413.312 247.456-546.144C417.056 12.256 667.904-128 791.648-128c0 0 185.6 136.544 185.6 204.8C977.248 145.056 791.648 349.856 729.792 281.6z"  horiz-adv-x="1024" />

    
    <glyph glyph-name="lianjie" unicode="&#58899;" d="M262.4-121.6c-64 0-128 25.6-179.2 76.8-102.4 102.4-102.4 262.4 0 364.8l134.4 134.4 89.6-89.6-134.4-134.4c-51.2-51.2-51.2-128 0-179.2 51.2-51.2 128-51.2 179.2 0l179.2 179.2c25.6 25.6 38.4 57.6 38.4 89.6S556.8 384 537.6 409.6L467.2 473.6l89.6 89.6 70.4-70.4C672 448 697.6 384 697.6 313.6c0-70.4-25.6-134.4-76.8-179.2l-179.2-179.2C396.8-96 326.4-121.6 262.4-121.6zM467.2 204.8 396.8 268.8c-102.4 102.4-102.4 262.4 0 364.8l179.2 179.2c102.4 102.4 262.4 102.4 364.8 0 102.4-102.4 102.4-262.4 0-364.8l-134.4-134.4-89.6 89.6 134.4 134.4c51.2 51.2 51.2 128 0 179.2-51.2 51.2-134.4 51.2-179.2 0L486.4 544c-51.2-51.2-51.2-128 0-179.2l70.4-70.4L467.2 204.8z"  horiz-adv-x="1024" />

    
    <glyph glyph-name="huowu" unicode="&#58934;" d="M1020.221442 636.976642l0.057305 0.01535L512.668731 889.775228 5.978666 637.473969l-0.948605 0 0-505.962493 507.639692-252.7904 507.610016 252.7904L1020.27977 636.976642 1020.221442 636.976642zM512.668731 828.557982l381.63693-190.562127L749.096465 565.018773l-383.65796 190.004425L512.668731 828.557982zM298.950208 719.149153l388.576993-186.487322-174.857447-84.181261-381.642047 188.511421L298.950208 719.149153zM68.45458 573.047634l20.269649 0.025583-20.269649 0.696872 0 31.654954L480.873584 400.08228l0-442.368106L68.45458 163.067168 68.45458 573.047634zM956.881858 542.210301l0-379.144156L544.462854-42.285826 544.462854 400.08228l412.417981 205.343785L956.880835 542.210301z"  horiz-adv-x="1024" />

    
    <glyph glyph-name="liutong" unicode="&#58928;" d="M467.699005-25.144422c-41.417452 5.13367-85.209283 18.449715-122.612326 37.28343-37.582162 18.92393-75.64117 44.519629-73.50805 49.436211 0.858209 1.97801 12.678784 13.754726 26.26795 26.170419 20.747028 18.95552 26.081705 21.597184 33.28 16.480154 21.839534-15.525069 80.530586-42.88809 107.135299-49.948774 16.538378-4.38912 50.750188-7.812352 78.077117-7.812352 27.326925 0 61.538765 3.423232 78.077133 7.812352 26.604698 7.060685 85.29577 34.423706 107.135283 49.948774 7.19831 5.11703 12.532992 2.475366 33.28-16.480154 13.589197-12.415693 25.409741-24.19241 26.267955-26.170419 2.14953-4.954368-36.023757-30.561382-74.26857-49.820109-61.394637-30.916198-148.741018-45.624422-219.131791-36.899533zM156.7055 89.986406c-47.352827 16.900403-71.504507 48.427878-74.623667 97.413376-2.390083 37.535488 8.472566 63.725568 36.716385 88.523981 24.240271 21.283226 49.691489 28.795546 86.30846 25.475226 37.914025-3.437926 64.958904-20.38185 83.772155-52.484198 26.630093-45.440819 21.67359-89.40928-14.503276-128.656538-30.605716-33.203251-76.427576-44.991437-117.670057-30.271846zm646.901079 0.124928c-46.356838 15.048704-81.290957 66.699008-76.123085 112.548506 3.401472 30.177536 25.335654 66.582835 49.917286 82.850202 24.069632 15.928474 71.06217 21.747507 99.590912 12.332186 24.947814-8.233523 52.047206-32.389683 65.150771-58.074726 15.616717-30.611354 11.670118-77.619302-8.986778-107.041382-28.318362-40.334438-82.088243-58.021888-129.549107-42.614784zM137.459005 360.374221c0 63.61322 37.966894 159.520804 85.978419 217.188746 28.031831 33.669801 68.02945 66.176097 108.98516 88.572877l27.564344 15.073659 5.968502-26.614241c3.282678-14.637834 7.401661-31.222241 9.1533-36.854241 2.580557-8.29719-1.78817-13.154212-23.026335-25.6-34.83158-20.411674-88.023127-77.402209-106.611743-114.226053-16.383852-32.456223-28.638541-72.289889-33.598899-109.212708l-3.191849-23.758746-28.733117-3.589939c-15.803218-1.974477-31.827922-4.777574-35.61045-6.229043-5.237719-2.009907-6.877332 4.00983-6.877332 25.24969zm719.034972-20.377139l-31.044966 4.990515-8.132045 43.074632c-15.997082 84.734858-69.385216 164.351043-136.848896 204.078792-21.114368 12.433741-25.476864 17.310838-22.89879 25.6 1.751603 5.632 5.8752 22.239396 9.163469 36.905318l5.978726 26.665318 35.73376-19.800899c101.848166-56.436403 178.534861-174.509379 185.551411-285.689754 1.483366-23.50464 0.642406-41.92384-1.895936-41.527245-2.508954 0.392192-18.531942 2.958541-35.606733 5.703322zM467.699005 578.807839C375.752387 621.377736 386.103731 753.615636 483.601306 781.958953c18.321951 5.326336 35.448576 6.939453 49.566362 4.668544 92.013773-14.800829 128.150682-124.765588 61.720218-187.814871-31.451648-29.850844-87.038556-38.593777-127.188879-20.004787z"  horiz-adv-x="1024" />

    
    <glyph glyph-name="chanpin" unicode="&#58990;" d="M526.91456 448.43008c-20.77184 0-40.66304 4.16256-56.01792 11.7248L164.52608 610.92864c-20.97664 10.31168-33.08032 26.87488-33.19808 45.42976-0.11776 18.75968 12.05248 35.73248 33.38752 46.5664L474.31168 860.1344c16.29696 8.27392 37.34016 12.83072 59.25888 12.83072 20.77184 0 40.66816-4.16256 56.02304-11.7248l306.3808-150.77888c20.97152-10.3168 33.07008-26.87488 33.18784-45.42464 0.11776-18.75968-12.04736-35.73248-33.37728-46.5664l-309.61152-157.2096C569.88672 452.98688 548.83328 448.43008 526.91456 448.43008zM187.12576 656.87552l306.3808-150.784c8.34048-4.10624 20.51584-6.46144 33.408-6.46144 13.81376 0 26.96704 2.65728 36.08576 7.28576l309.6064 157.2096c0.26624 0.13312 0.52224 0.26624 0.76288 0.39936l-306.38592 150.77888c-8.34048 4.10624-20.52096 6.46144-33.41312 6.46144-13.81376 0-26.96704-2.65216-36.08064-7.28064L187.88864 657.26976C187.62752 657.13664 187.37152 657.00352 187.12576 656.87552L187.12576 656.87552zM463.29344-104.97024c-10.58304 0-21.6576 2.7904-32.9216 8.27904l-0.66048 0.33792-273.75104 143.6416c-32.768 16.1792-57.44128 50.85184-57.44128 80.80896L98.51904 515.26656c0 27.136 19.9168 46.82752 47.34976 46.82752 10.58304 0 21.6576-2.7904 32.9216-8.28928L179.456 553.472l273.74592-143.6416c32.77312-16.17408 57.45152-50.85184 57.45152-80.80896l0-387.16928C510.64832-85.27872 490.73664-104.97024 463.29344-104.97024zM453.14048-50.82112c2.55488-1.2288 4.64896-1.95072 6.29248-2.37056l0.02048 382.208c0 8.2688-11.5968 26.43968-29.07648 34.97984l-0.66048 0.32768-273.6896 143.616c-2.54976 1.22368-4.64384 1.9456-6.28224 2.36544l-0.02048-382.21312c0-8.2688 11.5968-26.43968 29.07648-34.97984l0.65536-0.32768L453.14048-50.82112zM610.50368-104.97024C610.49856-104.97024 610.49856-104.97024 610.50368-104.97024c-27.4432 0-47.36 19.69152-47.36 46.8224l0 387.16928c0 29.96224 24.66816 64.63488 57.44128 80.80896l274.41664 143.97952c11.25888 5.49888 22.33344 8.28928 32.9216 8.28928 27.43296 0 47.34976-19.69664 47.34976-46.82752l0-387.16928c0-29.96224-24.66816-64.62976-57.4464-80.80896l-274.41152-143.97952C632.16128-102.17984 621.08672-104.97024 610.50368-104.97024zM917.77024 507.94496l-274.35008-143.9488c-17.47968-8.54016-29.07648-26.71104-29.07648-34.97984l0-382.21824c1.6384 0.43008 3.74272 1.152 6.30272 2.3808l274.34496 143.93856c17.47968 8.54016 29.07648 26.71104 29.07648 34.97984L924.06784 510.32064C922.42944 509.89568 920.33024 509.17376 917.77024 507.94496z"  horiz-adv-x="1024" />

    
    <glyph glyph-name="backtop" unicode="&#58938;" d="M64 757.3c0 41.3 33.4 74.7 74.7 74.7h746.6c41.2 0 74.7-33.4 74.7-74.7 0-41.2-33.4-74.7-74.7-74.7h-746.6c-41.3 0-74.7 33.5-74.7 74.7zM431.6 485.1c51.1 64.8 132.7 63.8 182.2-2.2l320.8-427c49.6-66 22.8-119.5-59.6-119.5l-727.5-0.4c-82.5-0.1-107.9 52.4-56.8 117.2l340.9 431.9z"  horiz-adv-x="1024" />

    
    <glyph glyph-name="add-more" unicode="&#59008;" d="M512 832C264.6 832 64 631.4 64 384s200.6-448 448-448 448 200.6 448 448S759.4 832 512 832z m294.2-742.2c-38.2-38.2-82.7-68.2-132.2-89.2C622.7-21 568.2-32 512-32s-110.7 11-161.9 32.7c-49.5 21-94 51-132.2 89.2-38.2 38.2-68.2 82.7-89.2 132.2C107 273.29999999999995 96 327.79999999999995 96 384s11 110.7 32.7 161.9c21 49.5 51 94 89.2 132.2 38.2 38.2 82.7 68.2 132.2 89.2C401.3 789 455.8 800 512 800s110.7-11 161.9-32.7c49.5-21 94-51 132.2-89.2 38.2-38.2 68.2-82.7 89.2-132.2C917 494.7 928 440.2 928 384s-11-110.7-32.7-161.9c-20.9-49.5-50.9-94-89.1-132.3zM704 448H576V576c0 35.2-28.8 64-64 64s-64-28.8-64-64v-128H320c-35.2 0-64-28.8-64-64s28.8-64 64-64h128v-128c0-35.2 28.8-64 64-64s64 28.8 64 64V320h128c35.2 0 64 28.8 64 64s-28.8 64-64 64z"  horiz-adv-x="1024" />

    
    <glyph glyph-name="kehu" unicode="&#58976;" d="M518.00064 405.76c-188.04224 0-340.48-152.43264-340.48-340.48 0-30.22848 3.9424-44.18048 11.33568-72.08448l656.90112-5.08928c8.28928 29.41952 12.7232 45.10208 12.7232 77.17376 0 188.04736-152.43776 340.48-340.48 340.48zM178.70848-36.91008c-15.37536 0-27.88352 12.40576-27.88352 27.648v74.9056c0 149.85728 90.8544 282.752 231.45984 338.57536l15.91296 6.3232-13.50656 10.52672c-52.77696 41.22112-83.05664 102.79424-83.05664 168.92928 0 118.50752 97.07008 214.91712 216.3968 214.91712s216.3968-96.4096 216.3968-214.91712c0-66.13504-30.27968-127.70816-83.05664-168.92928l-13.50656-10.53184 15.90784-6.31808c140.6208-55.82336 231.47008-188.71808 231.45984-338.57536v-74.9056c0-15.25248-12.50304-27.65312-27.8784-27.65312l-678.64576 0.00512z m339.36384 412.00128c-171.74528 0-311.47008-138.81856-311.47008-309.44256v-47.25248h622.85824v47.25248c0 170.61888-139.67872 309.44256-311.38816 309.44256z m-0.04096 374.528c-88.57088 0-160.61952-71.6032-160.61952-159.62112s72.04864-159.62112 160.61952-159.62112c88.56576 0 160.63488 71.6032 160.63488 159.62112S606.60224 749.6192 518.03136 749.6192zM27.89376 75.44832c-15.37536 0-27.89376 12.40064-27.89376 27.648v57.9328c0 108.81536 60.09344 207.33952 156.8512 257.10592l11.38688 5.86752-8.63744 9.47712c-29.97248 32.82944-46.47936 75.09504-46.47936 119.02464 0 93.824 75.88864 172.66176 169.84576 177.28-14.75584-19.94752-25.91232-41.02144-33.78176-63.7184-47.63136-16.45568-80.28672-62.4896-80.28672-113.5616 0-47.77984 28.33408-91.42784 72.18688-111.21152 12.1856-4.59776 19.69664-14.43328 19.69664-25.7024 0-11.44832-8.18688-21.86752-20.37248-25.91744l-6.51776-1.5104c-104.8832-26.29632-178.10432-119.69536-178.10432-227.12832v-30.30016h35.4304a384.0256 384.0256 0 0 1-5.44256-55.29088H27.89376v0.00512z m921.99424 0.01024a384.80896 384.80896 0 0 1-5.43744 55.28064h35.43552v30.30016c0 107.42784-73.19552 200.81664-177.9968 227.09248l-7.48544 1.78176c-11.43808 3.84512-19.52768 14.42304-19.52768 25.68192 0 11.10016 7.51104 21.0944 19.11808 25.46176 44.25216 19.94752 72.7808 63.67232 72.7808 111.45216 0 51.072-32.67072 97.1008-81.29024 114.54464-6.93248 21.85728-18.2784 43.24352-32.89088 62.7456 93.99808-4.56192 169.93792-83.41504 169.93792-177.29024 0-43.95008-16.50176-86.2208-46.47424-119.02464l-8.64256-9.47712 11.40736-5.86752c96.72704-49.76128 156.82048-148.27008 156.82048-257.1008v-57.93792c0-15.24224-12.49792-27.63776-27.8784-27.63776h-57.87648v-0.00512z"  horiz-adv-x="1036" />

    
    <glyph glyph-name="weixin" unicode="&#59100;" d="M831.1808 586.752c14.0288 0 27.9552-1.024 41.7792-2.6624C835.3792 763.0848 648.192 896 434.5856 896 195.584 896 0 729.6 0 518.2464c0-121.9584 65.1264-222.208 173.8752-299.8272l-43.4176-133.632 151.8592 77.824c54.3744-10.9568 97.9968-22.2208 152.2688-22.2208 13.6192 0 27.136 0.7168 40.5504 1.7408a337.1008 337.1008 0 0 0-13.4144 93.0816c0 194.048 163.0208 351.5392 369.4592 351.5392zM597.504 707.1744c32.768 0 54.3744-22.016 54.3744-55.5008 0-33.28-21.7088-55.5008-54.3744-55.5008-32.5632 0-65.2288 22.2208-65.2288 55.5008 0 33.4848 32.6656 55.5008 65.2288 55.5008z m-304.128-111.0016c-32.5632 0-65.4336 22.2208-65.4336 55.5008 0 33.4848 32.8704 55.5008 65.536 55.5008 32.4608 0 54.1696-22.016 54.1696-55.5008 0-33.28-21.7088-55.5008-54.272-55.5008z m934.4-355.6352c0-100.1472-65.024-188.8256-152.2688-255.6928l32.768-111.0016-119.1936 66.6624c-43.52-11.0592-87.1424-22.2208-130.4576-22.2208-206.7456 0-369.664 144.384-369.664 322.2528 0 177.5616 162.9184 322.3552 369.664 322.3552 195.2768 0 369.152-144.7936 369.152-322.3552z m-488.96 55.6032c32.8704 0 54.3744 22.016 54.3744 44.4416 0 22.1184-21.504 44.4416-54.272 44.4416-21.7088 0-43.6224-22.3232-43.6224-44.4416 0-22.528 21.9136-44.4416 43.52-44.4416z m239.0016 0c32.5632 0 54.3744 22.016 54.3744 44.4416 0 22.1184-21.8112 44.4416-54.272 44.4416-21.504 0-43.2128-22.3232-43.2128-44.4416 0-22.528 21.6064-44.4416 43.1104-44.4416z"  horiz-adv-x="1228" />

    
    <glyph glyph-name="gongsirongyu" unicode="&#58922;" d="M511.674589 656.290523c-105.966427 0-191.869912-85.903485-191.869913-191.869912s85.903485-191.869912 191.869913-191.869912 191.869912 85.903485 191.869912 191.869912-85.903485 191.869912-191.869912 191.869912z m0-350.994026c-87.881536 0-159.124114 71.242578-159.124114 159.124114s71.242578 159.124114 159.124114 159.124114 159.124114-71.242578 159.124113-159.124114-71.242578-159.124114-159.124113-159.124114z m336.408842-24.570605c29.846772 54.543244 46.818305 117.135814 46.818306 183.694719 0 211.651444-171.576727 383.228171-383.228172 383.228171s-383.228171-171.576727-383.228171-383.228171c0-66.558905 16.972557-129.151475 46.818305-183.694719L32.767288 80.680786h223.080751l64.468291-159.635767 111.960954 168.390152c25.617447-5.396917 52.17429-8.242731 79.397305-8.242731s53.779857 2.845815 79.397304 8.242731l111.960955-168.390152 64.46829 159.635767h223.080751L848.083431 280.725892zM320.31633-14.48669l-31.722493 127.913275h-192.381565l96.190783 127.913275v11.05273c49.371454-74.194816 123.913171-130.196271 211.435526-155.812695l-83.522251-111.066585z m-160.147421 478.907301c0 194.131419 157.37426 351.505679 351.50568 351.505679s351.505679-157.37426 351.505679-351.505679-157.37426-351.505679-351.505679-351.505679-351.505679 157.37426-351.50568 351.505679z m574.586431-350.994026l-31.722492-127.913275-83.522252 111.066585c87.522356 25.616424 162.064073 81.616856 211.435527 155.812695v-11.05273l96.190782-127.913275h-192.381565z"  horiz-adv-x="1024" />

    
    <glyph glyph-name="fanhui" unicode="&#58985;" d="M475.591111 595.626667V720.782222c-11.377778 52.337778-54.613333 20.48-54.613333 20.48L120.604444 484.124444c-65.991111-45.511111-4.551111-79.644444-4.551111-79.644444l295.822223-254.862222c59.164444-43.235556 63.715556 22.755556 63.715555 22.755555v116.053334C775.964444 381.724444 898.844444 8.533333 898.844444 8.533333c11.377778-20.48 18.204444 0 18.204445 0 116.053333 559.786667-441.457778 587.093333-441.457778 587.093334z"  horiz-adv-x="1024" />

    
    <glyph glyph-name="dianhua" unicode="&#58883;" d="M511.971328 861.391872c-263.660032 0-477.392384-213.731328-477.392384-477.39136s213.732352-477.392384 477.392384-477.392384c263.6544 0 477.391872 213.737472 477.391872 477.392384 0.000512 263.653888-213.73696 477.39136-477.391872 477.39136z m-29.52448-294.363136c3.083776-5.285888 3.699712-18.002944-8.986112-25.558528-12.747776-7.58784-25.689088-15.696384-41.536512-24.797696L337.397248 675.389952c15.12704 11.30752 29.241856 22.0416 34.283008 24.571904 8.656896 5.906944 21.780992 12.137472 32.927232-4.288 29.247488-46.834176 50.016256-80.977408 77.83936-128.64512z m240.705024-442.431488c-12.429824-7.090688-24.702464-14.443008-39.371264-23.044096a1459240.852992 1459240.852992 0 0 1-92.028416 154.476032c1.78944 3.130368 2.009088 4.075008 2.598912 4.461568 65.077248 43.55072 56.48128 33.682944 87.467008-17.53344 16.609792-27.458048 32.295936-55.49568 49.46944-82.59328 9.9456-15.686144 7.681536-26.732544-8.13568-35.761664v-0.00512zM291.414016 513.495552c-3.23072 17.036288-5.636096 52.682752-4.441088 64.026112 1.586176 25.616384 13.31712 47.611392 23.3984 62.660096 4.696064 7.012864 9.94048 14.14656 17.68448 24.740352 18.4832-30.960128 35.175936-58.903552 51.858432-86.852608 9.074688-15.200256 17.934336-30.525952 27.254272-45.569536 9.22624-14.898176 18.608128-27.625984 7.054848-47.778304-5.238784-9.126912-0.793088-28.120064 5.58336-38.885376 34.726912-58.642432 70.576128-116.680192 108.246528-173.459456 6.742016-10.158592 23.799808-13.492736 36.120064-19.93216 4.555264-2.386432 11.193344-3.418112 13.452288-7.149056 29.15328-48.003584 57.692672-96.385536 90.739712-152.006656-23.983104 0-42.700288-2.686976-60.35968 0.505856-51.753472 9.361408-94.16704 37.623296-129.838592 74.615296-94.06208 97.549312-161.178624 210.267136-186.753024 345.08544z m0 0"  horiz-adv-x="1024" />

    
    <glyph glyph-name="sousuo" unicode="&#59071;" d="M881.3 122.3L768.6 234.6c36.3 56.2 57.4 123 57.4 194.9 0 198.6-160.8 359.4-359.4 359.4s-359.4-161-359.4-359.4c0-198.6 160.8-359.4 359.4-359.4 72 0 139.1 21.2 195.3 57.6l112.5-112.1c32-31.9 81.9-33.9 111.4-4.5 29.4 29.4 27.4 79.3-4.5 111.2z m-414.9 67.4c-132.2 0-239.6 107.2-239.6 239.6 0 132.2 107.2 239.6 239.6 239.6S706 561.7 706 429.3c-0.2-132.4-107.4-239.6-239.6-239.6z"  horiz-adv-x="1024" />

    
    <glyph glyph-name="xiaohuoche" unicode="&#58996;" d="M956.586667 258.56L938.666667 336.64V341.333333h-1.066667l-69.546667 301.226667A106.666667 106.666667 0 0 1 764.16 725.333333H149.333333a106.666667 106.666667 0 0 1-106.666666-106.666666v-384a106.666667 106.666667 0 0 1 106.666666-106.666667h4.48a117.12 117.12 0 0 1 225.493334 0h243.84a117.12 117.12 0 0 1 225.493333 0H853.333333a106.666667 106.666667 0 0 1 103.253334 130.56zM874.666667 426.666667H618.666667a64 64 0 0 0-64 64v42.666666a64 64 0 0 0 64 64h216.106666zM85.333333 618.666667a64 64 0 0 0 64 64h614.826667a64 64 0 0 0 60.16-42.666667H618.666667a106.666667 106.666667 0 0 1-106.666667-106.666667v-42.666666a106.666667 106.666667 0 0 1 106.666667-106.666667h265.173333l9.813333-42.666667H85.333333V618.666667z m181.333334-533.333334a74.666667 74.666667 0 1 0 74.666666 74.666667 74.666667 74.666667 0 0 0-74.666666-74.666667z m469.333333 0a74.666667 74.666667 0 1 0 74.666667 74.666667 74.666667 74.666667 0 0 0-74.666667-74.666667z m166.826667 109.44A64 64 0 0 0 853.333333 170.666667a117.333333 117.333333 0 0 1-234.666666 0H384a117.333333 117.333333 0 0 1-234.666667 0 64 64 0 0 0-64 64v64h818.346667l11.52-49.706667a64 64 0 0 0-12.373333-54.186667zM789.333333 554.666667h-64a21.333333 21.333333 0 0 1 0-42.666667h64a21.333333 21.333333 0 0 1 0 42.666667z"  horiz-adv-x="1024" />

    
    <glyph glyph-name="zaixianzixun" unicode="&#59801;" d="M895.7 332.3c0.2 8.5 0.2 17.1 0.1 25.7 2.4 116.9-33.3 215.5-103.2 285.1-33.3 33.2-73.9 58.7-120.4 76C664.9 782.3 594.6 832 509.1 832s-155.8-49.7-163-112.9c-46.5-17.3-87-42.8-120.4-76-69.9-69.6-105.6-167.9-103.3-284.5-0.2-11-0.1-21.4 0.2-31.5-18.1-17.8-32.3-44.6-21.9-82.3 7.7-28 29-49 55-58.2 13.3-8 28.8-12.6 45.5-12.7C234.5 32.2 355.1-64 512.7-64c157.3 0 278 96.4 311.1 238.2 1-0.2 2.1-0.3 3.2-0.3 20.8 0 39.9 7.1 54.9 18.8 19.7 10.9 35.1 29.1 41.4 52.1 11.4 41.5-7 69.9-27.6 87.5M371.6 501.4c2.5-4.1 62.6-100.6 175.7-142.5 31.2-11.6 63.2-18.2 94.1-24.5 62-12.8 120.7-24.9 160.6-75.5 0.4-0.5 0.9-1 1.4-1.5-0.1-2.5-0.1-2.6-0.1-2.6 0-18.8-1.5-37.1-4.3-54.6-51.3-80-136.5-132.4-242-143.7-7.9 10.1-23.9 17.1-42.5 17.1-26.4 0-47.8-13.9-47.8-31.1 0-17.2 21.4-31.1 47.8-31.1 23.7 0 43.1 11.2 46.9 25.9 34 3.8 66.5 11.7 96.9 23.7 43.5 17.1 81.8 42 113.8 74.1 5.1 5.1 10.1 10.4 14.8 15.9-38.2-113.5-140.3-186.4-273.7-186.4h-1.1c-171.1 0-290.6 119.3-290.6 290.3l-0.3 16.3c-0.2 7 0.9 26.6 2.1 45.4 93.3 32.2 132 124.6 133.7 128.8l14.6 56m61.5-259.2c0-29.8-24.8-53.9-55.3-53.9s-55.3 24.2-55.3 53.9c0 29.8 24.8 53.9 55.3 53.9s55.3-24.2 55.3-53.9m257.6 0c0-29.3-24.4-53.1-54.4-53.1-30.1 0-54.4 23.8-54.4 53.1s24.4 53.1 54.4 53.1c30-0.1 54.4-23.8 54.4-53.1m0 0"  horiz-adv-x="1024" />

    
    <glyph glyph-name="QQ" unicode="&#58901;" d="M512 896a512 512 0 1 1 512-512A512 512 0 0 1 512 896z m226.9184-637.1328a368.64 368.64 0 0 0-46.08-83.968s53.248-18.0224 48.7424-64.9216c0 0 1.8432-52.224-113.4592-48.7424 0 0-81.92 6.3488-105.472 40.96h-20.48c-24.3712-34.2016-105.472-40.96-105.472-40.96-115.3024-3.4816-113.4592 48.7424-113.4592 48.7424-4.5056 46.8992 48.7424 64.9216 48.7424 64.9216a378.2656 378.2656 0 0 0-46.08 83.968c-71.8848-116.3264-64.7168 16.384-64.7168 16.384A250.0608 250.0608 0 0 0 290.6112 404.48c-8.192 71.4752 21.504 83.968 21.504 83.968C318.464 709.632 508.1088 705.9456 512 705.7408s193.536 3.8912 199.8848-216.6784c0 0 29.696-12.4928 21.504-83.968a250.0608 250.0608 0 0 0 70.2464-129.8432s7.168-132.7104-64.7168-16.384z"  horiz-adv-x="1024" />

    
    <glyph glyph-name="zidongshouhuoji" unicode="&#58981;" d="M793.988928 762.933278H230.011072a24.934027 24.934027 0 0 1-24.80616-25.104516v-654.294444c0-13.852237 11.124412-25.104516 24.80616-25.104516h24.720916v-32.179812c0-11.08179 7.373652-20.075088 16.494817-20.075089h63.294069c9.121165 0 16.494818 9.035921 16.494818 20.075089v32.179812h321.968616v-32.179812c0-11.08179 7.373652-20.075088 16.494818-20.075089h63.294069c9.121165 0 16.494818 9.035921 16.494817 20.075089v32.179812h24.720916a24.934027 24.934027 0 0 1 24.80616 25.104516V737.828762a24.934027 24.934027 0 0 1-24.80616 25.104516z m-149.902518-112.3523c0 9.078543 7.373652 16.494818 16.494818 16.494818h44.028803c9.121165 0 16.494818-7.416275 16.494818-16.494818V565.251197a16.494818 16.494818 0 0 0-16.494818-16.494818h-44.028803a16.494818 16.494818 0 0 0-16.494818 16.494818V650.580978z m0-218.396503c0 9.121165 7.373652 16.494818 16.494818 16.494817h44.028803c9.121165 0 16.494818-7.373652 16.494818-16.494817v-85.329782a16.494818 16.494818 0 0 0-16.494818-16.494818h-44.028803a16.494818 16.494818 0 0 0-16.494818 16.494818v85.329782z m-170.616941 218.396503c0 9.078543 7.373652 16.494818 16.494818 16.494818h44.028804c9.121165 0 16.494818-7.416275 16.494817-16.494818V565.251197a16.494818 16.494818 0 0 0-16.494817-16.494818h-44.028804a16.494818 16.494818 0 0 0-16.494818 16.494818V650.580978z m0-218.396503c0 9.121165 7.373652 16.494818 16.494818 16.494817h44.028804c9.121165 0 16.494818-7.373652 16.494817-16.494817v-85.329782a16.494818 16.494818 0 0 0-16.494817-16.494818h-44.028804a16.494818 16.494818 0 0 0-16.494818 16.494818v85.329782zM302.852529 650.580978c0 9.078543 7.373652 16.494818 16.494818 16.494818h44.028803c9.121165 0 16.494818-7.416275 16.494818-16.494818V565.251197a16.494818 16.494818 0 0 0-16.494818-16.494818H319.389969a16.494818 16.494818 0 0 0-16.494818 16.494818V650.580978h-0.042622z m0-218.396503c0 9.121165 7.373652 16.494818 16.494818 16.494817h44.028803c9.121165 0 16.494818-7.373652 16.494818-16.494817v-85.329782a16.494818 16.494818 0 0 0-16.494818-16.494818H319.389969a16.494818 16.494818 0 0 0-16.494818 16.494818v85.329782h-0.042622z m423.793215-275.467722a16.921041 16.921041 0 0 0-16.963663-16.963662H314.317919a16.921041 16.921041 0 0 0-16.963663 16.963662v62.100646c0 9.419521 7.586764 16.963663 16.963663 16.963662h395.364162c9.376899 0 16.963663-7.544142 16.963663-16.963662v-62.100646z"  horiz-adv-x="1024" />

    
    <glyph glyph-name="bumenjizigongsi" unicode="&#58885;" d="M918.511201 265.794743h-77.093526l-1.553431 149.580949H546.934133v90.947963h77.093526a86.197354 86.197354 0 0 1 86.323796 86.377986V791.576927A86.215417 86.215417 0 0 1 624.027659 877.93685H389.658282a86.197354 86.197354 0 0 1-86.341859-86.359923v-197.303792a86.197354 86.197354 0 0 1 86.341859-86.359923h81.699629v-92.519456l-306.820673-1.589558v-151.08019H104.40501A86.179291 86.179291 0 0 1 18.06315 176.400212v-197.394109c0-49.312401 38.546763-87.841101 86.34186-87.8411h234.38744a86.161228 86.161228 0 0 1 86.305733 86.323796V176.400212a86.161228 86.161228 0 0 1-86.305733 86.323796h-98.678991v72.469359h522.657259v-70.915928h-80.128136a86.23348 86.23348 0 0 1-86.396048-86.323796V-19.440466a86.215417 86.215417 0 0 1 86.396048-86.323796h234.333251a86.179291 86.179291 0 0 1 86.323797 86.323796V177.953643c1.571494 47.777033-36.993332 87.841101-84.788429 87.8411z m-579.718751-70.897865a20.41136 20.41136 0 0 0 20.013971-20.032034V-22.511201c0-10.801764-9.248333-20.032034-20.013971-20.032034H104.40501a20.41136 20.41136 0 0 0-20.032034 20.032034V176.400212a20.41136 20.41136 0 0 0 20.032034 20.032034l234.38744-1.535368z m50.865832 379.308096c-10.783701 0-20.013971 9.212207-20.013971 20.068161V791.576927c0 10.83789 9.248333 20.06816 20.013971 20.06816h234.369377a20.41136 20.41136 0 0 0 20.06816-20.06816v-197.303792a20.41136 20.41136 0 0 0-20.06816-20.068161H389.658282zM937.02593-19.440466a20.41136 20.41136 0 0 0-20.032033-20.032034H684.141824a20.429423 20.429423 0 0 0-20.032034 20.032034V177.953643a20.41136 20.41136 0 0 0 20.032034 19.995907H918.511201c10.83789 0 20.032034-9.248333 20.032034-19.995907l-1.517305-197.394109z m0 0"  horiz-adv-x="1024" />

    
    <glyph glyph-name="hangyexinwen" unicode="&#58980;" d="M1071.486326 387.043995v2.435196s0 1.217598-1.217598 1.217599c0 1.217598-1.217598 2.435196-2.435196 2.435196h-1.217599c-1.217598 1.217598-2.435196 1.217598-2.435196 2.435196-1.217598 1.217598-3.652794 1.217598-4.870392 1.217598H852.318668c-2.435196 99.843044-26.787158 193.598098-63.315101 272.741974 37.745541 18.263971 73.055886 42.615933 104.713437 70.62069C961.902497 676.832342 1010.606421 594.035672 1033.740785 497.845422c1.217598-6.08799 8.523187-10.958383 14.611177-8.523187 6.08799 1.217598 10.958383 8.523187 8.523187 14.611178C1002.083234 735.277051 797.526754 896 560.095125 896 277.612366 896 48.703924 667.091558 48.703924 384.608799c0-1.217598 0-2.435196 1.217598-3.652794v-1.217598c0-1.217598 1.217598-2.435196 2.435196-3.652795 2.435196-2.435196 4.870392-3.652794 8.523187-3.652794h206.991676c2.435196-98.625446 25.56956-189.945303 60.879905-267.871581-37.745541-19.48157-73.055886-42.615933-105.931034-71.838288-65.750297 63.315101-114.454221 146.111772-136.370987 242.302021-1.217598 6.08799-8.523187 10.958383-14.611177 8.523187-7.305589-2.435196-10.958383-8.523187-9.740785-14.611177C115.671819 35.158145 320.2283-128 560.095125-128h1.217598C842.577883-126.782402 1071.486326 102.12604 1071.486326 384.608799v2.435196zM827.966706 396.78478H292.223543c2.435196 98.625446 25.56956 188.727705 60.879905 263.001189 64.532699-28.004756 133.935791-43.833532 205.774079-43.833531h1.217598c71.838288 0 142.458977 14.611177 205.774078 43.833531 35.310345-74.273484 59.662307-164.375743 62.097503-263.001189zM560.095125 871.648038c52.356718 0 136.370987-73.055886 196.033294-189.945303-60.879905-26.787158-127.8478-41.398335-196.033294-41.398335h-1.217598c-68.185493 0-133.935791 14.611177-196.033294 41.398335C423.724138 798.592152 507.738407 871.648038 560.095125 871.648038zM342.145065 691.44352c-34.092747 17.046373-66.967895 38.963139-97.407847 64.532699 65.750297 56.009512 147.32937 94.972652 236.214031 109.583829-48.703924-34.092747-99.843044-94.972652-138.806184-174.116528z m435.900119 0c-40.180737 77.926278-90.102259 140.023781-138.806183 174.116528 88.884661-14.611177 170.463734-52.356718 236.214031-109.583829-29.222354-25.56956-62.097503-46.268728-97.407848-64.532699z m-551.571938 48.703924c31.657551-28.004756 66.967895-51.13912 104.713437-69.403092-36.527943-79.143876-60.879905-172.89893-63.315102-272.741974H73.055886c3.652794 133.935791 62.097503 255.6956 153.41736 342.145066zM292.223543 372.432818h535.743163c-2.435196-96.19025-25.56956-183.857313-58.444708-258.130797-132.718193 59.662307-284.917955 59.662307-418.853746 0-32.875149 74.273484-56.009512 161.940547-58.444709 258.130797z m267.871582-474.863258c-53.574316 0-138.806183 75.491082-198.46849 194.815696C487.039239 149.612366 633.151011 149.612366 758.563615 92.385256 698.901308-26.939358 613.669441-102.43044 560.095125-102.43044z m220.385255 185.074911c34.092747-17.046373 68.185493-40.180737 98.625446-65.750297-66.967895-58.444709-148.546968-97.407848-239.866825-113.236623 49.921522 34.092747 101.060642 97.407848 141.241379 178.98692z m-440.770511 0c40.180737-81.579073 92.537455-143.676576 142.458978-178.98692-91.319857 14.611177-174.116528 53.574316-241.084424 112.019025 30.439952 26.787158 63.315101 48.703924 98.625446 66.967895z m557.659929-49.921522C864.494649 61.945303 827.966706 85.079667 791.438763 104.561237c35.310345 77.926278 59.662307 170.463734 60.879905 267.871581h194.815696c-3.652794-133.935791-60.879905-253.260404-149.764566-339.709869zM60.879905 31.505351c-34.092747 0-60.879905-26.787158-60.879905-60.879905s26.787158-60.879905 60.879905-60.879905 60.879905 26.787158 60.879905 60.879905-26.787158 60.879905-60.879905 60.879905z m0-97.407848c-20.699168 0-36.527943 15.828775-36.527943 36.527943s15.828775 36.527943 36.527943 36.527943 36.527943-15.828775 36.527943-36.527943-15.828775-36.527943-36.527943-36.527943zM1095.838288 810.768133c-34.092747 0-60.879905-26.787158-60.879905-60.879905s26.787158-60.879905 60.879905-60.879905 60.879905 26.787158 60.879905 60.879905-26.787158 60.879905-60.879905 60.879905z m0-97.407848c-20.699168 0-36.527943 15.828775-36.527943 36.527943s15.828775 36.527943 36.527943 36.527943 36.527943-15.828775 36.527943-36.527943-15.828775-36.527943-36.527943-36.527943z"  horiz-adv-x="1158" />

    
    <glyph glyph-name="cangku_cangchuguanli" unicode="&#60104;" d="M477.866667 443.733333V469.333333h64v-25.6c17.066667-4.266667 29.866667-12.8 38.4-21.333333l21.333333 12.8 34.133333-55.466667-21.333333-12.8c0-8.533333 4.266667-17.066667 4.266667-21.333333s0-17.066667-4.266667-21.333333l21.333333-12.8-34.133333-55.466667-21.333333 12.8c-12.8-8.533333-25.6-17.066667-38.4-21.333333v-34.133334h-64v25.6c-17.066667 4.266667-29.866667 12.8-38.4 21.333334l-21.333334-12.8-34.133333 55.466666 21.333333 12.8c0 8.533333-4.266667 17.066667-4.266666 21.333334s0 17.066667 4.266666 21.333333l-21.333333 21.333333 34.133333 55.466667 21.333334-12.8c12.8 8.533333 25.6 17.066667 38.4 21.333333zM170.666667 85.333333H85.333333v320H42.666667L345.6 682.666667l59.733333-55.466667-166.4-153.6L170.666667 418.133333V170.666667h42.666666v-85.333334H170.666667z m686.933333 0H810.666667v85.333334h46.933333v247.466666l-64 55.466667-166.4 153.6L682.666667 682.666667l302.933333-277.333334h-42.666667V85.333333h-85.333333z m-85.333333 320V85.333333h-512v320H213.333333L512 682.666667l302.933333-277.333334h-42.666666z m-426.666667 12.8V170.666667h341.333333v247.466666L512 571.733333l-166.4-153.6zM512 298.666667c25.6 0 42.666667 17.066667 42.666667 42.666666s-17.066667 42.666667-42.666667 42.666667-42.666667-17.066667-42.666667-42.666667 17.066667-42.666667 42.666667-42.666666z"  horiz-adv-x="1024" />

    
    <glyph glyph-name="ziyuan" unicode="&#58889;" d="M905.522848-128a17.58443 17.58443 0 0 0-8.792215 3.516886L625.930404 75.39324599999998a26.962793 26.962793 0 0 0-5.861477 32.82427 16.998283 16.998283 0 0 0 14.653692 10.550658 13.481397 13.481397 0 0 0 7.61992 0l249.112765-184.050372L987.583524 840.902118l-923.768747-351.688609 322.381225-193.428735a25.20435 25.20435 0 0 0 10.550659-22.273612l-4.103034-179.361191 130.124785 72.096165a11.722954 11.722954 0 0 0 6.447625 5.275329 16.998283 16.998283 0 0 0 14.067544-8.792215 26.962793 26.962793 0 0 0-4.689181-32.238122l-152.398398-100.817402a17.58443 17.58443 0 0 0-9.96451-4.103033 11.722954 11.722954 0 0 0-7.033772 0 24.032055 24.032055 0 0 0-9.964511 21.687464l5.275329 211.599313-351.688609 211.599313A21.687464 21.687464 0 0 0 1.683123 494.488838a23.445907 23.445907 0 0 0 11.722954 19.929021L1001.651068 896h4.689182a17.58443 17.58443 0 0 0 10.550658-4.689181 18.756726 18.756726 0 0 0 4.689181-20.515169l-100.817401-978.280481a23.445907 23.445907 0 0 0-9.964511-18.170578h-5.861476zM488.185699 259.443618a12.895249 12.895249 0 0 0-11.136806 5.275329 28.721236 28.721236 0 0 0 0 33.996565l158.259874 167.638237 222.149971 239.734402a19.342873 19.342873 0 0 0 14.653692 8.206068 18.756726 18.756726 0 0 0 14.653692-7.61992c5.861477-7.033772 9.378363-16.412135-4.689181-33.996566l-213.943904-228.597596-168.224384-178.775043a15.23984 15.23984 0 0 0-11.722954-5.861476z"  horiz-adv-x="1024" />

    
    <glyph glyph-name="chengshifanghongyingji" unicode="&#58903;" d="M511.999983 815.072124c90.301271 0 174.523127-34.488544 237.131854-97.085713s97.085713-146.784352 97.085713-237.131854-34.488544-174.523127-97.085713-237.131854-146.784352-97.085713-237.131854-97.085713-174.523127 34.488544-237.131854 97.085713-97.085713 146.784352-97.085713 237.131854 34.488544 174.523127 97.085713 237.131854 146.784352 97.085713 237.131854 97.085713M511.999983 895.976884C280.612367 895.976884 96.854539 712.207499 96.854539 480.831441c0-78.165557 20.977449-150.898937 57.673537-212.941331 89.064584-165.866318 260.917854-323.965778 328.854737-384.875505a42.983544 42.983544 0 0 1 57.060972-0.312061c67.243414 58.944897 235.167024 216.038827 325.318043 379.096594a412.186641 412.186641 0 0 1 50.033816 121.068195 312.766248 312.766248 0 0 1 7.998013 44.254905 429.60428 429.60428 0 0 1 3.351769 53.732319C927.145426 712.207499 743.387599 895.976884 511.999983 895.976884z m237.131854-652.277297c-62.620285-62.620285-146.784352-97.085713-237.131854-97.085713s-174.523127 34.488544-237.131854 97.085713-97.085713 146.784352-97.085713 237.131854 34.488544 174.523127 97.085713 237.131854 146.784352 97.085713 237.131854 97.085713 174.523127-34.488544 237.131854-97.085713 97.085713-146.784352 97.085713-237.131854-34.442312-174.500011-97.085713-237.108738zM722.583517 615.121786q0 24.964898-17.845278 26.767918h-3.571368q-1.80302 12.459333-12.494006 35.690557-10.702544 17.822163-33.910653 14.273912-21.416646-7.154292-14.273911-26.767918 3.559809-8.945755 7.142734-16.065374c0-3.571367 0.589449-5.963837 1.779905-7.142735h-30.339285v25.022687q-1.80302 23.115646-24.988014 24.988013-25.011129 0-26.767918-23.19655v-26.767918h-101.708842q-35.713673 0-35.690557-35.690558v-23.196551q0 17.822163-17.845279 17.845279h-19.648299v69.60121q-1.80302 19.648299-24.988013 21.416646-23.208109-1.80302-24.988013-21.416646v-69.60121h-16.065374q-19.648299-1.80302-21.416646-24.988013 1.756789-23.208109 21.416646-24.988013h16.065374v-121.357142a113.902345 113.902345 0 0 0-12.494007-7.142734 120.94106 120.94106 0 0 1-12.494007-7.142735q-23.208109-16.065374-16.065374-35.690557 10.702544-21.416646 35.690558-12.494007a570.07806 570.07806 0 0 1 80.303754 46.393102q-19.648299-57.130319-49.964469-87.446489-17.856836-19.648299 3.571367-37.470462 21.416646-10.702544 41.04183 12.494007 66.006727 74.952482 67.809747 208.792072h17.845279c9.512088 1.155782 14.273911-1.779905 14.273911-8.92264v-85.655026q-1.80302-14.308585-5.351272-16.065374-5.351272-1.80302-19.648299-1.779905-21.416646-1.80302-23.196551-23.19655 3.559809-23.208109 24.988014-24.988014 37.48202-1.80302 49.964468 7.142735 24.964898 0 19.648299 160.653739 0 39.227251-42.833292 39.296599h-35.690557v30.339285a11.557823 11.557823 0 0 0 5.351272 5.351272h85.655026q7.108061-116.028985 26.767918-198.089528-30.362401-39.296598-82.060543-66.029843-26.767918-14.262354-16.065374-35.690557 14.262354-17.822163 42.833292-5.351272 33.875979 16.065374 73.172577 53.535836 23.115646-55.292625 53.535836-64.23838 30.327727-10.714102 41.04183 23.196551 7.108061 23.208109 7.142734 87.446488 0 24.964898-19.648299 26.767918-19.648299-1.80302-21.416646-24.988013 1.756789-46.427775-5.351272-41.041829-5.351272 0-16.065374 35.690557 46.381544 74.952482 57.107204 157.036141 3.548252 21.416646-16.065374 28.547822-23.208109 3.559809-28.559381-16.065374-14.308585-62.493149-32.11919-101.708842-8.945755 58.944897-14.273911 141.005441h80.303754q19.648299 1.664327 21.451319 23.080972zM426.344957 452.722815c-2.392469 7.142735-6.553286 10.089979-12.494007 8.92264-4.773381 0-11.904558-2.404027-21.416646-7.142735v96.369128h17.845279q19.648299 0 19.648299 21.416646v-82.060543a103.280706 103.280706 0 0 0-3.582925-37.48202z"  horiz-adv-x="1024" />

    
    <glyph glyph-name="qiyewenhua" unicode="&#59444;" d="M512 535.6c81.7 0 148.1 66.4 148.1 148.1 0 81.7-66.4 148.1-148.1 148.1-81.6 0-148-66.5-148-148.2 0-81.6 66.4-148 148-148z m0 243.8c52.8 0 95.8-43 95.8-95.8s-43-95.8-95.8-95.8-95.7 42.9-95.7 95.7c0 52.9 42.9 95.9 95.7 95.9zM906 587.9c-144.3 0-284.1-48.3-394.1-136.2-109.8 87.9-249.6 136.2-394 136.2H91.7v-499.3h26.2c140 0 273.9-48.9 377-137.7l17.1-14.7 17.1 14.7c103.2 88.8 237.1 137.7 377 137.7h26.2V587.9H906zM879.9 535v-394.6c-134.6-5.4-265-53.5-367.9-135.7C409.1 86.9 278.7 135 144.1 140.4V535c130.3-5.7 254.7-54.3 350.8-137.1l17.1-14.7 17.1 14.7c96.1 82.8 220.6 131.4 350.8 137.1z"  horiz-adv-x="1024" />

    
    <glyph glyph-name="liansuo-cangkuguanli-fenzukucunchaxun" unicode="&#58918;" d="M861.027624-128H174.139203c-41.229474 0-74.644211 33.549474-74.778947 74.644211V370.122105H50.98973l-4.042106 1.212632c-21.962105 7.006316-28.294737 13.473684-30.450526 15.629474l-0.808421 0.808421-0.673684 0.808421c-22.366316 26.273684-19.402105 66.021053 6.602105 88.791579l447.865263 402.863157 0.269474 0.269474c23.848421 20.210526 58.341053 20.210526 82.054737 0l0.538947-0.40421L1003.848677 477.642105c13.473684-11.722105 21.557895-28.698947 22.096842-46.48421 0.538947-16.842105-5.524211-32.336842-16.976842-43.924211-3.772632-3.772632-18.324211-16.168421-46.618947-16.168421-8.892632 0-15.36 0.134737-21.153685 0.269474-2.021053 0-3.772632 0.134737-5.658947 0.134737v-424.55579c0.134737-41.364211-33.28-74.778947-74.509474-74.913684zM59.747624 424.151579h50.122106c23.983158 0 43.385263-18.997895 43.385263-42.307368v-434.930527c0-11.452632 9.431579-20.749474 20.88421-20.88421H861.027624c11.452632 0 20.749474 9.431579 20.884211 20.88421V378.206316c0 25.869474 21.018947 46.888421 46.753684 47.023158 4.715789 0 9.162105-0.134737 13.877895-0.134737 5.524211-0.134737 11.722105-0.269474 20.075789-0.269474 4.715789 0 7.814737 0.808421 9.162106 1.482105 0.269474 0.673684 0.538947 1.616842 0.538947 2.964211-0.134737 2.829474-1.482105 5.928421-3.772632 7.814737l-0.269473 0.269473-451.368421 402.324211c-3.503158 2.829474-8.488421 2.829474-11.991579 0L57.457098 437.086316l-0.134737-0.134737c-3.098947-2.694737-4.042105-7.141053-2.56-10.778947 1.347368-0.673684 3.233684-1.482105 4.985263-2.021053zM338.248677-45.810526h-75.452632c-23.713684 0-43.115789 19.402105-43.115789 43.115789v75.452632c0 23.713684 19.402105 43.115789 43.115789 43.115789h75.452632c23.713684 0 43.115789-19.402105 43.11579-43.115789v-75.452632c0-23.713684-19.402105-43.115789-43.11579-43.115789z m-64.673684 53.894737h53.894737v53.894736h-53.894737v-53.894736zM338.248677 142.821053h-75.452632c-23.713684 0-43.115789 19.402105-43.115789 43.115789v75.452632c0 23.713684 19.402105 43.115789 43.115789 43.115789h75.452632c23.713684 0 43.115789-19.402105 43.11579-43.115789v-75.452632c0-23.713684-19.402105-43.115789-43.11579-43.115789z m-64.673684 53.894736h53.894737v53.894737h-53.894737v-53.894737zM338.248677 328.757895h-75.452632c-23.713684 0-43.115789 19.402105-43.115789 43.115789v75.452632c0 23.713684 19.402105 43.115789 43.115789 43.115789h75.452632c23.713684 0 43.115789-19.402105 43.11579-43.115789v-75.452632c0-23.713684-19.402105-43.115789-43.11579-43.115789z m-64.673684 53.894737h53.894737v53.894736h-53.894737v-53.894736zM553.827624-45.810526h-75.452631c-23.713684 0-43.115789 19.402105-43.11579 43.115789v75.452632c0 23.713684 19.402105 43.115789 43.11579 43.115789h75.452631c23.713684 0 43.115789-19.402105 43.11579-43.115789v-75.452632c0-23.713684-19.402105-43.115789-43.11579-43.115789z m-64.673684 53.894737h53.894737v53.894736h-53.894737v-53.894736zM553.827624 142.821053h-75.452631c-23.713684 0-43.115789 19.402105-43.11579 43.115789v75.452632c0 23.713684 19.402105 43.115789 43.11579 43.115789h75.452631c23.713684 0 43.115789-19.402105 43.11579-43.115789v-75.452632c0-23.713684-19.402105-43.115789-43.11579-43.115789z m-64.673684 53.894736h53.894737v53.894737h-53.894737v-53.894737zM769.406572-45.810526h-75.452632c-23.713684 0-43.115789 19.402105-43.115789 43.115789v75.452632c0 23.713684 19.402105 43.115789 43.115789 43.115789h75.452632c23.713684 0 43.115789-19.402105 43.115789-43.115789v-75.452632c0-23.713684-19.402105-43.115789-43.115789-43.115789z m-64.673684 53.894737h53.894736v53.894736h-53.894736v-53.894736z"  horiz-adv-x="1025" />

    
    <glyph glyph-name="gongsijieshao" unicode="&#59029;" d="M203.244557 712.976203c0 29.553418 28.516456 52.885063 63.254684 52.885063H523.665823c34.738228 0 62.736203-23.850127 62.736202-52.885063v-634.62076c0-12.443544 10.36962-22.813165 22.813165-22.813165 12.443544 0 22.813165 10.36962 22.813164 22.813165V584.911392h149.841013c29.553418 0 52.885063-23.850127 52.885063-52.885063v-445.37519c0-12.443544 10.36962-22.813165 22.813165-22.813164 12.443544 0 22.813165 10.36962 22.813164 22.813164V531.507848c0 54.440506-44.070886 98.511392-98.511392 98.511393h-150.359494v82.956962c0 26.961013-11.406582 51.848101-32.664303 70.513417-20.739241 18.146835-47.700253 27.997975-75.179747 27.997975H267.017722c-59.625316 0-108.881013-44.070886-108.881013-98.511392v-634.62076c0-12.443544 10.36962-22.813165 22.813164-22.813165 12.443544 0 22.813165 10.36962 22.813165 22.813165l-0.518481 634.62076zM125.472405 17.693165h786.535696c15.035949 0 22.813165-7.777215 22.813165-22.813165 0-15.035949-7.777215-22.813165-22.813165-22.813165H125.472405c-15.035949 0-22.813165 7.777215-22.813164 22.813165 0 15.55443 7.258734 22.813165 22.813164 22.813165zM284.646076 569.356962h95.918987c15.035949 0 22.813165-7.777215 22.813165-22.813165 0-15.035949-7.777215-22.813165-22.813165-22.813164H284.646076c-15.035949 0-22.813165 7.777215-22.813165 22.813164 0.518481 15.035949 7.777215 22.813165 22.813165 22.813165zM467.151392 569.356962h26.442532c15.035949 0 22.813165-7.777215 22.813165-22.813165 0-15.035949-7.777215-22.813165-22.813165-22.813164h-26.442532c-15.035949 0-22.813165 7.777215-22.813164 22.813164 0.518481 15.55443 7.777215 22.813165 22.813164 22.813165zM284.646076 416.405063h95.918987c15.035949 0 22.813165-7.777215 22.813165-22.813164 0-15.035949-7.777215-22.813165-22.813165-22.813165H284.646076c-15.035949 0-22.813165 7.777215-22.813165 22.813165 0.518481 15.035949 7.777215 22.813165 22.813165 22.813164zM467.151392 416.405063h26.442532c15.035949 0 22.813165-7.777215 22.813165-22.813164 0-15.035949-7.777215-22.813165-22.813165-22.813165h-26.442532c-15.035949 0-22.813165 7.777215-22.813164 22.813165 0.518481 15.55443 7.777215 22.813165 22.813164 22.813164zM284.646076 272.267342h95.918987c15.035949 0 22.813165-7.777215 22.813165-22.813165 0-15.035949-7.777215-22.813165-22.813165-22.813164H284.646076c-15.035949 0-22.813165 7.777215-22.813165 22.813164 0.518481 15.035949 7.777215 22.813165 22.813165 22.813165zM467.151392 272.267342h26.442532c15.035949 0 22.813165-7.777215 22.813165-22.813165 0-15.035949-7.777215-22.813165-22.813165-22.813164h-26.442532c-15.035949 0-22.813165 7.777215-22.813164 22.813164 0.518481 15.55443 7.777215 22.813165 22.813164 22.813165zM688.024304 479.659747h35.256709c15.035949 0 22.813165-7.777215 22.813164-22.813165 0-15.035949-7.777215-22.813165-22.813164-22.813164h-35.256709c-15.035949 0-22.813165 7.777215-22.813165 22.813164 0 15.55443 7.777215 22.813165 22.813165 22.813165zM688.024304 338.632911h35.256709c15.035949 0 22.813165-7.777215 22.813164-22.813164 0-15.035949-7.777215-22.813165-22.813164-22.813165h-35.256709c-15.035949 0-22.813165 7.777215-22.813165 22.813165 0 15.035949 7.777215 22.813165 22.813165 22.813164zM688.024304 195.013671h35.256709c15.035949 0 22.813165-7.777215 22.813164-22.813165 0-15.035949-7.777215-22.813165-22.813164-22.813164h-35.256709c-15.035949 0-22.813165 7.777215-22.813165 22.813164 0 15.035949 7.777215 22.813165 22.813165 22.813165zM791.720506 479.659747c4.666329 0 7.258734-2.592405 7.258735-7.258734v-383.157469c0-4.666329-2.592405-7.258734-7.258735-7.258734-4.666329 0-7.258734 2.592405-7.258734 7.258734V472.401013c0 4.666329 2.073924 7.258734 7.258734 7.258734z"  horiz-adv-x="1036" />

    
    <glyph glyph-name="zengzhifuwu" unicode="&#58936;" d="M575.93902-127.99968c-17.279995 0-33.47199 7.743998-44.319986 21.375993L12.899196 536.672112a58.879982 58.879982 0 0 0-4.735999 66.655979L164.611149 867.968009A56.959982 56.959982 0 0 0 198.979138 894.112001c1.248 0.32 2.463999 0.64 3.679999 0.767999C206.307136 895.68 210.019134 896 213.763133 896h724.543774c20.031994 0 38.815988-10.879997 49.055984-28.223991l156.479952-264.575918a58.879982 58.879982 0 0 0-4.767999-66.655979L620.227006-106.623687a56.351982 56.351982 0 0 0-44.287986-21.375993z m-499.199844 702.81578l499.199844-618.943806 499.167844 618.943806-146.079954 246.783923H222.81913L76.803176 574.8161z m804.799749 41.695987c1.056-9.759997-1.855999-19.519994-8.447998-27.263991l-279.743912-346.143892a35.967989 35.967989 0 0 0-24.767993-13.503996c-1.216-0.16-2.431999-0.16-3.647999-0.16h-0.639999a36.575989 36.575989 0 0 0-29.023991 13.631996L255.55512 589.280096a38.079988 38.079988 0 0 0-8.095997 27.263991c1.056 9.919997 5.663998 18.751994 13.279996 25.119992a36.415989 36.415989 0 0 0 51.647983-5.119998l252.127922-311.871902 252.095921 311.871902a36.415989 36.415989 0 0 0 51.647984 5.119998c7.615998-6.367998 12.351996-15.199995 13.279996-25.119992z"  horiz-adv-x="1152" />

    
    <glyph glyph-name="ic_baojiagongju_cangpeiyiti" unicode="&#59003;" d="M633.984 11.648c-24.832 0.256-45.568-20.224-46.176-45.632-0.64-25.408 20.48-47.456 45.536-47.552 24.64-0.064 45.344 20.992 45.504 46.336 0.16 25.472-20 46.528-44.864 46.848zM619.168-128c-0.512 0.448-0.96 1.184-1.568 1.344-48 13.664-69.568 39.392-75.84 91.488h-89.536V336.608h362.4V-34.56h-89.6c-0.768-6.304-1.056-12-2.24-17.504-8.8-39.04-32.032-63.744-70.048-73.76-1.952-0.576-3.872-1.44-5.824-2.176h-27.744z m379.072 139.584a45.888 45.888 0 0 1-46.592-44.928c-0.544-26.112 19.424-47.68 44.736-48.096 24.64-0.48 45.44 20.064 46.144 45.632 0.736 25.12-19.424 46.72-44.288 47.36zM906.848 105.6h125.888c-19.872 30.464-38.816 59.648-57.92 88.704a7.232 7.232 0 0 1-5.216 3.008c-20.768 0.224-41.568 0.192-62.752 0.192V105.6z m76.736-233.6c-4.672 1.44-9.376 2.88-14.08 4.384-34.72 11.232-59.648 42.976-62.88 80.128-0.224 2.464-0.64 4.928-1.056 8.48h-44.32v278.88c3.36 0.224 6.72 0.608 10.144 0.608 38.336 0.032 76.672-0.128 115.008 0.224 7.616 0.096 12.16-2.272 16.448-8.832 28.16-43.648 56.704-87.04 85.152-130.464v-154.88c-0.8-2.304-1.76-4.576-2.4-6.944-9.12-33.92-29.6-56.736-62.496-67.584-3.936-1.28-7.904-2.688-11.84-4h-27.68zM179.424 198.4h89.504v138.4H179.424V198.4zM88.288 523.936H0.8L0 526.144C150.336 649.248 300.672 772.448 451.52 896l453.888-371.744h-89.472v-120.352h-428.8v-438.08h-298.88V523.968z"  horiz-adv-x="1088" />

    
    <glyph glyph-name="dizhi1" unicode="&#58884;" d="M328.704 429.056c6.144-9.216 31.744-48.128 160.768-232.448l1.024-1.024c7.168-9.216 19.456-15.36 30.72-15.36 12.288 0 24.576 6.144 30.72 16.384 55.296 79.872 159.744 230.4 163.84 235.52l1.024 1.024c21.504 35.84 33.792 77.824 33.792 119.808 0 125.952-102.4 229.376-229.376 229.376S291.84 679.936 291.84 552.96c0-44.032 12.288-86.016 36.864-123.904z m191.488 294.912c94.208 0 171.008-76.8 171.008-171.008 0-30.72-8.192-60.416-24.576-89.088-6.144-9.216-90.112-130.048-145.408-209.92-43.008 61.44-136.192 195.584-145.408 207.872-17.408 26.624-27.648 58.368-27.648 90.112 1.024 94.208 77.824 172.032 172.032 172.032z m0-299.008c69.632 0 126.976 57.344 126.976 126.976s-57.344 126.976-126.976 126.976-126.976-57.344-126.976-126.976 56.32-126.976 126.976-126.976z m0 196.608c37.888 0 68.608-30.72 68.608-68.608 0-38.912-30.72-68.608-68.608-68.608-37.888 0-68.608 30.72-68.608 68.608s30.72 68.608 68.608 68.608z m486.4-494.592L864.256 402.432h-117.76l-46.08-59.392h128l130.048-248.832 2.048-2.048c7.168-9.216 7.168-21.504 2.048-31.744-5.12-10.24-15.36-16.384-27.648-16.384h-844.8c-12.288 0-22.528 6.144-27.648 16.384-5.12 11.264-4.096 22.528 3.072 32.768l1.024 1.024 128 249.856h145.408l-48.128 59.392H158.72L16.384 126.976C-3.072 99.32799999999997-5.12 64.51199999999994 10.24 35.84000000000003c16.384-30.72 46.08-49.152 80.896-49.152h844.8c33.792 0 64.512 18.432 79.872 49.152 13.312 29.696 10.24 64.512-9.216 91.136z"  horiz-adv-x="1024" />

    
    <glyph glyph-name="guanbi" unicode="&#58882;" d="M583.168 372.224L958.464 747.52c18.944 18.944 18.944 50.176 0 69.12l-2.048 2.048c-18.944 18.944-50.176 18.944-69.12 0L512 442.88 136.704 818.688c-18.944 18.944-50.176 18.944-69.12 0l-2.048-2.048c-19.456-18.944-19.456-50.176 0-69.12l375.296-375.296L65.536-3.072c-18.944-18.944-18.944-50.176 0-69.12l2.048-2.048c18.944-18.944 50.176-18.944 69.12 0L512 301.056 887.296-74.24c18.944-18.944 50.176-18.944 69.12 0l2.048 2.048c18.944 18.944 18.944 50.176 0 69.12L583.168 372.224z"  horiz-adv-x="1024" />

    
    <glyph glyph-name="zuoji" unicode="&#58920;" d="M1120.684181 470.028328a179.903646 179.903646 0 0 0-248.123989-28.058367 168.350201 168.350201 0 0 0-29.158695 240.971856 172.201349 172.201349 0 0 0 21.456398 21.456399 664.048015 664.048015 0 0 1-562.267665 0 165.049217 165.049217 0 0 0 14.85443-228.318083 179.903646 179.903646 0 0 0-248.123989-28.058367 168.350201 168.350201 0 0 0-29.158695 241.52202 174.95217 174.95217 0 0 0 78.123296 55.016406 794.436896 794.436896 0 0 0 947.932667-11.003281 178.253154 178.253154 0 0 0 29.708859-18.705578 168.350201 168.350201 0 0 0 24.757383-244.823005zM401.069596 628.475576h133.689866v-132.039373h89.126577v132.039373h133.689865v-132.039373l311.392855-400.519433v-220.065622H89.676741v220.065622l311.392855 400.519433z m-43.46296-378.51287c0-61.618374 99.579694-110.032811 220.065622-110.032811s220.065622 50.064929 220.065622 110.032811-99.579694 110.032811-220.065622 110.032811-220.065622-48.414437-220.065622-110.032811z"  horiz-adv-x="1163" />

    
    <glyph glyph-name="cangchu" unicode="&#59080;" d="M1023.940506 506.049126L538.240377 888.986709a32.332461 32.332461 0 0 1-40.177837 0L12.362411 506.049126a32.463217 32.463217 0 0 1 40.177838-50.994948l65.378138 51.470425v-602.073213a32.391896 32.391896 0 0 1 32.45133-32.451331h753.928797a32.391896 32.391896 0 0 1 32.45133 32.451331V492.141413l46.834521-37.087235a32.463217 32.463217 0 0 1 40.177837 50.994948z m-152.093322-568.908668H182.702178V544.622227a31.143767 31.143767 0 0 1-2.139649 11.411457l337.58893 266.20789 353.695725-278.92691zM275.12309 412.201781a60.207321 60.207321 0 0 1 120.414643 0 60.207321 60.207321 0 0 1-120.414643 0zM275.12309 240.554452a60.207321 60.207321 0 1 1 120.414643 0 60.207321 60.207321 0 1 1-120.414643 0zM472.446197 240.554452a60.207321 60.207321 0 1 1 120.414643 0 60.207321 60.207321 0 1 1-120.414643 0zM275.12309 68.847689a60.207321 60.207321 0 0 1 120.414643 0 60.207321 60.207321 0 0 1-120.414643 0zM472.446197 68.847689a60.207321 60.207321 0 0 1 120.414643 0 60.207321 60.207321 0 0 1-120.414643 0zM669.888173 68.847689a60.207321 60.207321 0 0 1 120.414643 0 60.207321 60.207321 0 0 1-120.414643 0z"  horiz-adv-x="1036" />

    
    <glyph glyph-name="yuangongfengcai_cu" unicode="&#59030;" d="M187.48969 302.08a20.48 20.48 0 0 1 6.9632 1.2288l254.976 92.9792a20.48 20.48 0 0 1 12.288 26.2144L294.60009 882.4832a20.48 20.48 0 0 1-39.3216-3.6864l-88.064-552.96a20.48 20.48 0 0 1 20.48-23.7568z m95.6416 491.52l133.12-365.568-203.1616-73.3184zM1006.89449 640.8192l-551.936 88.064a20.48 20.48 0 0 1-22.528-27.2384l92.7744-254.976a20.48 20.48 0 0 1 19.2512-13.5168 20.48 20.48 0 0 1 6.9632 1.2288l459.1616 167.1168a20.48 20.48 0 0 1-3.6864 39.3216z m-450.56-160.9728l-73.5232 203.1616L921.69769 612.9664zM829.74249 463.6672l-255.1808-92.7744a20.48 20.48 0 0 1-11.4688-10.6496 20.48 20.48 0 0 1 0-15.5648l167.1168-459.1616a20.48 20.48 0 0 1 19.0464-13.5168h2.048a20.48 20.48 0 0 1 18.2272 16.9984l88.064 551.936a20.48 20.48 0 0 1-27.2384 22.528zM740.85929-25.6l-132.9152 364.9536 203.1616 73.9328zM498.99049 321.536a20.48 20.48 0 0 1-26.2144 12.0832L13.61449 166.7072a20.48 20.48 0 0 1 3.6864-39.5264l552.96-88.064H573.53769a20.48 20.48 0 0 1 19.2512 27.4432zM102.49769 155.2384l365.568 132.9152 73.9328-203.1616z"  horiz-adv-x="1024" />

    
    <glyph glyph-name="xinwen" unicode="&#58900;" d="M873.11 606.22h-55.55V772.89A111.22 111.22 0 0 1 706.44 884H150.89A111.22 111.22 0 0 1 39.78 772.89v-777.78A111.22 111.22 0 0 1 150.89-116h722.22a111.22 111.22 0 0 1 111.11 111.11v500a111.22 111.22 0 0 1-111.11 111.11zM95.33-4.89V772.89a55.63 55.63 0 0 0 55.56 55.56h555.55A55.63 55.63 0 0 0 762 772.89v-833.33H150.89a55.63 55.63 0 0 0-55.56 55.55z m833.33 0a55.63 55.63 0 0 0-55.56-55.56h-55.54V550.67h55.56a55.63 55.63 0 0 0 55.56-55.56zM206.44 542.34a13.88 13.88 0 0 1 13.89 13.89v87.45l63.45-95.16a13.9 13.9 0 0 1 11.56-6.18 13.72 13.72 0 0 1 4 0.6 13.88 13.88 0 0 1 9.87 13.29V689.56a13.89 13.89 0 0 1-27.78 0v-87.46L218 697.26a13.89 13.89 0 0 1-25.44-7.7v-133.33a13.88 13.88 0 0 1 13.88-13.89z m166.67 0H462a13.89 13.89 0 0 1 0 27.78h-75V609h75a13.89 13.89 0 1 1 0 27.78h-75v38.9h75a13.89 13.89 0 1 1 0 27.78h-88.89a13.88 13.88 0 0 1-13.89-13.89v-133.34a13.88 13.88 0 0 1 13.89-13.89z m162.54 0.05a14.17 14.17 0 0 1 14.46 9.2l34.1 96.35 34.13-96.35a13.91 13.91 0 0 1 13.1-9.25c0.43 0 0.9 0 1.36 0.05a13.91 13.91 0 0 1 12.4 11.83l19.45 133.33a13.92 13.92 0 0 1-11.75 15.76 14.06 14.06 0 0 1-15.76-11.75l-11.34-77.8-28.48 80.43c-4 11.07-22.24 11.07-26.2 0l-28.46-80.4-11.34 77.77a14.15 14.15 0 0 1-15.76 11.75 13.92 13.92 0 0 1-11.75-15.76l19.45-133.33a13.91 13.91 0 0 1 12.39-11.83zM650.89 384H206.44a27.78 27.78 0 0 1 0-55.56h444.45a27.78 27.78 0 0 1 0 55.56z m0-138.89H206.44a27.78 27.78 0 0 1 0-55.56h444.45a27.78 27.78 0 1 1 0 55.56z m0-138.89H206.44a27.78 27.78 0 0 1 0-55.56h444.45a27.78 27.78 0 1 1 0 55.56z"  horiz-adv-x="1024" />

    


  </font>
</defs>
</svg>
